<svg version="1.1" id="Layer_1" xmlns="http://www.w3.org/2000/svg" xmlns:xlink="http://www.w3.org/1999/xlink" x="0px" y="0px"
	 width="100%" viewBox="0 0 225 225" enable-background="new 0 0 225 225" xml:space="preserve">
<path fill="none" opacity="1.000000" stroke="#000000" stroke-linecap="round" stroke-linejoin="round" stroke-width="9.000000"
	d="
M74.500000,164.000000 
	C78.015068,167.794159 82.400505,169.078705 87.500298,169.044189 
	C104.666176,168.927979 121.833344,168.991104 138.999985,169.009155 
	C141.716919,169.012024 144.727158,169.486786 146.914520,167.883392 
	C149.059601,166.310974 150.008240,168.183029 151.503235,168.483932 
	C158.366089,169.865173 165.236160,170.637756 171.987717,167.968933 
	C172.844940,167.630081 174.167191,167.500534 173.681549,166.012512 
	C171.955505,154.047531 166.020920,142.203125 173.000000,130.000000 
"/>
<path fill="none" opacity="1.000000" stroke="#000000" stroke-linecap="round" stroke-linejoin="round" stroke-width="3.000000"
	d="
M147.000000,158.000000 
	C142.460999,161.304962 137.240341,161.058060 131.999847,161.027145 
	C118.333649,160.946503 104.665977,160.925949 91.000488,161.052383 
	C87.609764,161.083740 84.457344,160.660965 81.500000,159.000000 
"/>
<path fill="none" opacity="1.000000" stroke="#000000" stroke-linecap="round" stroke-linejoin="round" stroke-width="3.000000"
	d="
M103.000000,109.000000 
	C99.233475,113.100342 94.281776,114.832626 88.998680,114.913002 
	C78.461342,115.073341 73.133377,121.870972 73.117065,134.000153 
	C73.115295,135.313248 73.371841,136.573166 72.471153,137.471054 
	C69.120110,140.811646 68.891800,145.398010 67.549095,149.516006 
	C66.668358,152.217194 66.419426,155.051743 68.548767,157.628967 
	C71.461571,156.788879 74.419899,156.038757 77.500000,156.750000 
"/>
<path fill="none" opacity="1.000000" stroke="#000000" stroke-linecap="round" stroke-linejoin="round" stroke-width="3.000000"
	d="
M110.500000,128.000000 
	C107.324776,129.914429 103.835594,128.826172 100.498138,128.949661 
	C95.338539,129.140564 90.148918,129.263474 85.005592,128.916992 
	C80.860405,128.637756 80.080246,130.610245 80.501129,133.999863 
	C81.058144,138.485794 82.878654,142.899185 81.039322,147.515671 
	C80.562523,148.712357 79.906631,149.659973 79.000000,150.500000 
"/>
<path fill="none" opacity="1.000000" stroke="#000000" stroke-linecap="round" stroke-linejoin="round" stroke-width="3.000000"
	d="
M128.500000,113.000000 
	C132.675720,113.610130 136.691025,114.830574 140.978622,115.229691 
	C146.757660,115.767647 151.350677,119.150833 152.473648,125.504654 
	C153.721161,132.563080 157.244049,139.126282 157.000000,146.500000 
"/>
<path fill="none" opacity="1.000000" stroke="#000000" stroke-linecap="round" stroke-linejoin="round" stroke-width="3.000000"
	d="
M146.000000,148.500000 
	C143.421173,145.808563 145.068344,142.802261 145.550476,140.008713 
	C147.452591,128.987457 147.525177,128.999985 136.500000,129.000000 
	C131.500000,129.000000 126.499802,129.025101 121.500107,128.986176 
	C119.786171,128.972839 117.941254,129.460388 116.500000,128.000000 
"/>
<path fill="none" opacity="1.000000" stroke="#000000" stroke-linecap="round" stroke-linejoin="round" stroke-width="10.000000"
	d="
M164.000000,103.999992 
	C164.500000,104.166664 164.990829,104.440437 165.501358,104.484177 
	C175.610992,105.350281 178.642609,100.328949 176.104614,90.971626 
	C175.428070,88.477180 174.105850,87.168388 171.996643,87.085480 
	C167.674515,86.915573 163.519455,83.906898 158.891663,86.828400 
	C157.417648,87.758934 154.663040,86.491249 152.500748,86.535965 
	C147.775848,86.633652 145.006760,89.311501 144.500000,94.000000 
	C143.977707,98.832054 146.707336,103.150887 151.005051,103.973587 
	C155.148361,104.766701 159.333328,106.825294 163.500000,104.000000 
"/>
<path fill="none" opacity="1.000000" stroke="#000000" stroke-linecap="round" stroke-linejoin="round" stroke-width="3.000000"
	d="
M146.000000,77.000000 
	C157.169159,77.000000 168.338303,77.000000 180.110031,77.000000 
	C179.776276,79.536911 180.675049,81.625694 179.000000,83.500000 
"/>
<path fill="none" opacity="1.000000" stroke="#000000" stroke-linecap="round" stroke-linejoin="round" stroke-width="3.000000"
	d="
M100.000000,74.750000 
	C104.819313,70.638634 111.259094,69.813805 116.560280,66.599411 
	C118.867798,65.200233 126.674385,69.443321 128.499344,72.500389 
	C132.405045,79.042976 133.199539,86.875084 131.461319,93.355507 
	C129.969360,98.917732 127.652855,105.892609 121.010231,109.021721 
	C111.708229,113.403542 106.034775,111.873299 100.478065,103.514580 
	C96.083542,96.904076 93.513916,90.038933 95.949776,81.984810 
	C96.588348,79.873352 97.403198,78.007805 99.000000,76.500000 
"/>
<path fill="none" opacity="1.000000" stroke="#000000" stroke-linecap="round" stroke-linejoin="round" stroke-width="3.000000"
	d="
M164.500000,146.500000 
	C164.450241,139.830414 165.652451,133.129517 165.482590,126.462936 
	C164.712967,126.433975 163.943344,126.405022 163.173737,126.376060 
	C161.363464,132.921188 160.965149,139.678101 161.000000,146.500000 
"/>
<path fill="none" opacity="1.000000" stroke="#000000" stroke-linecap="round" stroke-linejoin="round" stroke-width="3.000000"
	d="
M180.500000,115.000000 
	C173.833328,115.000000 167.166672,115.000000 160.500000,115.000000 
"/>
<path fill="none" opacity="1.000000" stroke="#000000" stroke-linecap="round" stroke-linejoin="round" stroke-width="3.000000"
	d="
M67.000000,138.500000 
	C65.225006,135.812256 65.244850,132.174286 62.587070,129.589447 
	C58.982430,132.716370 60.445530,137.092957 59.000000,140.500000 
"/>
<path fill="none" opacity="1.000000" stroke="#000000" stroke-linecap="round" stroke-linejoin="round" stroke-width="3.000000"
	d="
M98.500000,113.500000 
	C99.441811,117.629486 101.108490,121.287819 104.772125,123.426888 
	C110.666664,119.808571 116.333336,122.273293 122.188324,123.334267 
	C128.990021,117.348373 129.471817,113.855377 124.000000,109.000000 
"/>
<path fill="none" opacity="1.000000" stroke="#000000" stroke-linecap="round" stroke-linejoin="round" stroke-width="9.000000"
	d="
M169.000000,147.000000 
	C164.833328,147.000000 160.666672,146.997482 156.500000,147.000580 
	C149.718170,147.005630 145.625732,152.639664 148.068726,158.973495 
	C149.062897,161.551086 149.368286,163.931000 148.500000,166.500000 
"/>
<path fill="none" opacity="1.000000" stroke="#000000" stroke-linecap="round" stroke-linejoin="round" stroke-width="3.000000"
	d="
M55.500000,114.500000 
	C60.833332,115.323059 66.166664,115.323059 71.500000,114.500000 
"/>
<path fill="none" opacity="1.000000" stroke="#000000" stroke-linecap="round" stroke-linejoin="round" stroke-width="3.000000"
	d="
M170.500000,71.500000 
	C166.500000,70.694687 162.500000,70.694687 158.500000,71.500000 
"/>
<path fill="none" opacity="1.000000" stroke="#000000" stroke-linecap="round" stroke-linejoin="round" stroke-width="3.000000"
	d="
M46.500000,119.500000 
	C50.500000,120.305313 54.500000,120.305313 58.500000,119.500000 
"/>
<path fill="none" opacity="1.000000" stroke="#000000" stroke-linecap="round" stroke-linejoin="round" stroke-width="3.000000"
	d="
M102.500000,111.000000 
	C104.219872,115.051598 108.980865,116.231033 111.000000,120.000000 
"/>
<path fill="none" opacity="1.000000" stroke="#000000" stroke-linecap="round" stroke-linejoin="round" stroke-width="3.000000"
	d="
M124.500000,111.000000 
	C122.780128,115.051598 118.019135,116.231033 116.000000,120.000000 
"/>
<path fill="none" opacity="1.000000" stroke="#000000" stroke-linecap="round" stroke-linejoin="round" stroke-width="3.000000"
	d="
M154.500000,71.000000 
	C151.166672,71.000000 147.833328,71.000000 144.500000,71.000000 
"/>
<path fill="none" opacity="1.000000" stroke="#000000" stroke-linecap="round" stroke-linejoin="round" stroke-width="3.000000"
	d="
M145.500000,79.000000 
	C145.521439,77.942261 145.800140,76.820168 143.996948,76.960983 
	C142.593384,77.070595 141.936752,77.580299 141.994049,79.000237 
	C142.057175,80.565033 141.680801,82.219078 143.000000,83.500000 
"/>
<path fill="none" opacity="1.000000" stroke="#000000" stroke-linecap="round" stroke-linejoin="round" stroke-width="7.000000"
	d="
M158.000000,87.500000 
	C157.442184,88.666664 159.076523,89.604950 158.063416,91.044624 
	C155.463425,94.739243 156.349594,99.417236 155.000000,103.500000 
"/>
<path fill="none" opacity="1.000000" stroke="#000000" stroke-linecap="round" stroke-linejoin="round" stroke-width="4.000000"
	d="
M167.000000,87.500000 
	C165.837463,89.889442 164.684006,92.280090 166.000000,95.000000 
"/>
<path fill="none" opacity="1.000000" stroke="#000000" stroke-linecap="round" stroke-linejoin="round" stroke-width="2.000000"
	d="
M113.500000,140.500000 
	C110.227448,140.883057 108.435127,142.746124 109.094543,145.980728 
	C109.518532,148.060577 111.007195,149.805130 113.500496,149.993408 
	C116.031158,150.184555 117.110954,148.020111 117.855919,146.432388 
	C118.651543,144.736725 118.038750,142.613083 115.998085,141.503525 
	C115.343658,141.147690 114.666664,140.833328 114.000000,140.500000 
"/>
</svg>